<?xml version="1.0" encoding="UTF-8"?>
<!DOCTYPE svg PUBLIC "-//W3C//DTD SVG 1.1//EN" "http://www.w3.org/Graphics/SVG/1.1/DTD/svg11.dtd">
<!-- Creator: CorelDRAW 2020 (64 Bit) -->
<svg xmlns="http://www.w3.org/2000/svg" xml:space="preserve" width="42.3332mm" height="42.3332mm" version="1.1" style="shape-rendering:geometricPrecision; text-rendering:geometricPrecision; image-rendering:optimizeQuality; fill-rule:evenodd; clip-rule:evenodd"
viewBox="0 0 4233.32 4233.32"
 xmlns:xlink="http://www.w3.org/1999/xlink"
 xmlns:xodm="http://www.corel.com/coreldraw/odm/2003">
 <defs>
  <style type="text/css">
   <![CDATA[
    .fil0 {fill:#2A2D31}
   ]]>
  </style>
 </defs>
 <g id="Camada_x0020_1">
  <metadata id="CorelCorpID_0Corel-Layer"/>
  <path class="fil0" d="M1685.09 3141.62l257.34 77.71c205.49,28.37 393.69,11.54 582.56,-64.02 71.06,-28.45 165.26,-76.27 222.72,-118.01 141.6,-102.84 233.91,-195.94 325.66,-347.25 222.94,-367.72 190.14,-882.71 7.32,-1247.82 -90.94,-181.64 -173.43,-310.96 -318.81,-456.31 -144.16,-144.11 -265.16,-226.62 -447.87,-318.73 -344.78,-173.78 -769.19,-201.14 -1147.11,-96.55 -52.26,14.47 -257.82,85.38 -306.61,127.79 -19.27,-13.75 -12.4,1.47 49.2,-53.01 20.1,-17.77 41.33,-31.9 62.76,-47.96 443.38,-332.56 1014.71,-462.73 1560.92,-336.82 234.04,53.93 470.81,155.07 664.48,289.52l198.88 158.85c301.32,304.75 462.94,527.27 572.85,977.39 127.41,521.79 11.49,1040.46 -359.99,1411.92 -213.43,213.45 -562.41,410.98 -985.92,410.98 -311.55,0 -675.73,-124.98 -896.24,-321.79 -25.81,-23.04 -17.47,-19.14 -49.23,-35.94l7.09 -9.95zm488.2 1091.69l-120.3 0c-294.1,-7.79 -585.25,-72.71 -835.09,-195.78 -114.42,-56.36 -223.08,-115.49 -322.24,-188.8 -317.43,-234.72 -520.79,-469.76 -699.88,-833.34 -95.25,-193.35 -195.78,-530.19 -195.78,-817.82l0 -161.84c0,-287.77 101.13,-628.62 198.63,-823.49 152.4,-304.56 302.17,-497.86 552.83,-716.32 137.7,-120.01 294.52,-214.09 460.79,-297.28 103.67,-51.89 251.99,-104.41 375.83,-135.25 237.43,-59.14 340.5,-63.16 549.49,-63.4l10.91 0 11.1 0 11.3 0 11.52 0 11.74 0 11.96 0c402.98,0 902.98,191.11 1215.39,445.57l196.43 178.35c357.91,357.91 615.4,882.83 615.4,1411.82l0 161.84c0,288.5 -100.89,628.11 -198.63,823.49 -232.09,463.81 -560.43,796.25 -1024.98,1019.29 -251.11,120.57 -542.64,185.19 -836.42,192.96zm-580.47 -2504.21c90.6,0 159.07,12.06 230.18,59.4 234.78,156.32 152.82,335.44 217.81,523.26 83.95,242.72 329.09,413.91 574.14,413.91 61.79,0 125.64,-21.13 178.87,-25.55 -24.5,46.3 -78.24,89.18 -122.74,124.26 -439.89,346.63 -1104.55,200.64 -1350.89,-294.55 -105.44,-211.94 -177.83,-514.41 40.5,-709.18 47.53,-42.4 145.75,-91.55 232.13,-91.55z"/>
 </g>
</svg>
